# xmcd CD database file
#
# Track frame offsets:
#	150
#	18642
#	40840
#	54517
#	74915
#	102537
#	133577
#	150852
#	166610
#	179142
#	199197
#	217285
#	238817
#	257422
#	281522
#	295352
#
# Disc length: 4119 seconds
#
# Revision: 0
# Processed by: cddbd v1.4PL0 Copyright (c) Steve Scherf et al.
# Submitted via: CDex 1.51
#
DISCID=f9101510
DTITLE=Göta River Jazzmen - Swedish Hymns
DYEAR=2001
DGENRE=Jazz
TTITLE0=Pärleporten
TTITLE1=Jesus för världen givit sitt liv
TTITLE2=Medan allting ler och blommar
TTITLE3=När morgonen kommer
TTITLE4=Guds vandringsmän
TTITLE5=Härlighetens morgon
TTITLE6=Min Gud, jag sjunker ner
TTITLE7=Låt mig börja med dig
TTITLE8=Nu är jag nöjd och glader
TTITLE9=Lämna dig helt åt Jesus
TTITLE10=Skall det bli några stjärnor 
TTITLE11=Bred dina vida vingar
TTITLE12=O Sällhet stor
TTITLE13=Blott en dag
TTITLE14=Fröjdas vart sinne
TTITLE15=Tack min gud
EXTD=YEAR: 2001
EXTT0=
EXTT1=
EXTT2=
EXTT3=
EXTT4=
EXTT5=
EXTT6=
EXTT7=
EXTT8=
EXTT9=
EXTT10=
EXTT11=
EXTT12=
EXTT13=
EXTT14=
EXTT15=
PLAYORDER=
